General
Format                           : Matroska
File size                        : 5.78 GiB
Duration                         : 2h 37mn
Overall bit rate                 : 5 258 Kbps
Movie name                       : Romanii Au Talent Semifinala2 HDTV 1080i H264-playHD
Encoded date                     : UTC 2011-04-04 01:55:55
Writing application              : mkvmerge v4.4.0 ('Die Wiederkehr') built on Oct 31 2010 21:52:48
Writing library                  : libebml v1.0.0 + libmatroska v1.0.0

Video
ID                               : 1
Format                           : AVC
Format/Info                      : Advanced Video Codec
Format profile                   : High@L4.0
Format settings, CABAC           : Yes
Format settings, ReFrames        : 3 frames
Format settings, GOP             : M=2, N=39
Codec ID                         : V_MPEG4/ISO/AVC
Duration                         : 2h 37mn
Bit rate mode                    : Variable
Bit rate                         : 5 000 Kbps
Maximum bit rate                 : 25.0 Mbps
Width                            : 1 280 pixels
Height                           : 720 pixels
Display aspect ratio             : 16:9
Frame rate                       : 25.000 fps
Color space                      : YUV
Chroma subsampling               : 4:2:0
Bit depth                        : 8 bits
Scan type                        : Progressive
Bits/(Pixel*Frame)               : 0.217
Stream size                      : 5.39 GiB (93%)
Writing library                  : x264 core 112 r1867 22bfd31

Audio
ID                               : 2
Format                           : MPEG Audio
Format version                   : Version 1
Format profile                   : Layer 2
Codec ID                         : A_MPEG/L2
Codec ID/Hint                    : MP2
Duration                         : 2h 37mn
Bit rate mode                    : Constant
Bit rate                         : 256 Kbps
Channel(s)                       : 2 channels
Sampling rate                    : 48.0 KHz
Compression mode                 : Lossy
Stream size                      : 288 MiB (5%)
Language                         : Romanian



